<svg width="176" height="220" viewBox="0 0 176 220" fill="none" xmlns="http://www.w3.org/2000/svg">
<path fill-rule="evenodd" clip-rule="evenodd" d="M0.553617 0C0.553617 0 51.972 29.856 68.7561 63.8487C74.8569 62.1725 81.2683 61.26 87.8057 61.26C94.4654 61.26 100.994 62.2068 107.197 63.9437C123.932 29.9116 175.446 0 175.446 0C177.268 19.3999 175.565 65.965 155.238 104.915C154.062 102.897 152.928 101.011 151.795 99.2033C158.554 85.2408 160.526 76.2407 160.691 59.0728C156.794 74.6561 154.519 83.4282 147.392 92.5893C143.009 86.4063 137.913 80.3681 130.038 71.8738L130.045 71.6493C132.663 55.7628 136.68 46.1958 145.063 28.8167C128.676 48.0343 120.848 63.6264 121.083 77.5211L120.949 77.3913C121.054 85.2628 123.742 92.5889 128.926 99.7183L129.914 92.2456L134.386 94.9795C133.831 93.2936 133.274 91.889 132.752 90.569C132.188 89.1415 131.662 87.8131 131.218 86.335C131.276 86.3839 131.335 86.4327 131.394 86.4816C131.379 86.4327 131.364 86.3839 131.349 86.335C137.775 91.672 143.553 97.7688 153.262 108.571L153.133 108.799L153.007 108.676C153.47 111.182 153.711 113.729 153.711 116.305C153.711 120.459 153.084 125.663 151.91 131.535C153.751 132.601 155.566 134.061 156.746 136.354C154.257 136.396 152.54 136.603 150.642 137.258C150.575 137.536 150.507 137.815 150.438 138.096C157.178 144.605 160.235 149.222 164.633 157.861C157.716 152.107 153.342 148.549 148.407 145.605C148.185 146.365 147.957 147.13 147.722 147.899C151.513 154.603 152.246 159.545 150.511 168.068C147.251 165.247 144.905 163.265 142.82 162.164C141.289 166.178 139.619 170.218 137.825 174.212C136.62 175.376 135.653 176.64 134.697 177.888C132.138 181.232 129.658 184.472 122.912 185.428C123.275 194.666 121.232 198.714 119.06 203.019C117.971 205.176 116.85 207.398 115.983 210.369C114.272 212.368 112.525 214.229 110.748 215.93C99.7545 221.432 99.182 221.16 88.9153 216.293L87.6311 215.684C76.1202 221.129 75.2912 221.42 65.5288 216.557C63.1951 214.387 60.9132 211.937 58.6949 209.26C57.8859 206.828 56.9128 204.899 55.9642 203.019C53.7914 198.714 51.7492 194.666 52.1116 185.428C45.3659 184.472 42.8858 181.232 40.3263 177.888C39.6855 177.051 39.0397 176.208 38.3208 175.392C36.3456 171.064 34.5155 166.676 32.849 162.316C30.7494 163.411 28.39 165.403 25.1003 168.251C23.3593 159.7 24.1028 154.754 27.9258 148.016C27.6943 147.26 27.4688 146.508 27.2496 145.76C22.2961 148.709 17.9164 152.271 10.9781 158.044C15.3836 149.389 18.4442 144.77 25.2104 138.243C25.1453 137.98 25.0811 137.719 25.0179 137.458C23.1009 136.789 21.3752 136.579 18.8649 136.536C20.0522 134.23 21.8819 132.766 23.7348 131.699C22.5388 125.759 21.9003 120.497 21.9003 116.305C21.9003 113.748 22.1378 111.218 22.5944 108.73C32.3896 97.8287 38.1931 91.6984 44.6498 86.335C44.2054 87.8131 43.6798 89.1415 43.1152 90.5685C42.5929 91.8886 42.0372 93.2932 41.4813 94.9795L45.9535 92.2451L46.9421 99.7183C61.2528 80.0336 56.5476 58.8532 30.9364 28.8168C39.3185 46.1958 43.3361 55.7632 45.9535 71.6493L45.9612 71.8738C38.0863 80.3681 32.9896 86.4063 28.6064 92.5893C21.4797 83.4282 19.2048 74.6561 15.3076 59.0728C15.4728 76.2407 17.4454 85.2408 24.2042 99.2033C23.0712 101.01 21.9378 102.896 20.7616 104.914C0.435554 65.9641 -1.26843 19.3997 0.553617 0ZM69.7288 145.102L63.8917 134.166L47.5092 131.25C48.224 142.829 55.9828 147.289 69.7288 145.102ZM113.98 134.166L108.143 145.102C121.889 147.289 129.647 142.829 130.362 131.25L113.98 134.166ZM77.3203 191.163C74.7737 192.908 73.2017 195.302 73.2017 197.945C73.2017 203.28 79.609 207.604 87.5128 207.604C95.4163 207.604 101.824 203.28 101.824 197.945C101.824 195.165 100.084 192.659 97.2994 190.897C94.4777 191.998 90.8743 192.659 86.9481 192.659C83.3501 192.659 80.0228 192.104 77.3203 191.163Z" fill="#040D21"/>
</svg>
